<svg xmlns="http://www.w3.org/2000/svg" viewBox="0 0 80 80"><title>mariage</title><g id="Calque_2" data-name="Calque 2"><path d="M77.47,45.22l-.09-.51c-.06-.36-.13-.71-.17-1.07a22.34,22.34,0,0,0-2.16-7A23.87,23.87,0,0,0,53.79,23.3a24.07,24.07,0,0,0-11.63,3c-.58.33-1.14.68-1.71,1l-.46.29a19.85,19.85,0,0,0-3.65-2.11c-1-.41-2-.78-2.94-1.14l-.58-.21,2.91-3.34,2.64-3a1.64,1.64,0,0,0,0-2.31l-1.83-2.25q-1.34-1.64-2.67-3.29a2.24,2.24,0,0,0-1.85-.86c-4.13,0-7.88,0-11.46,0a2.21,2.21,0,0,0-2,1c-.4.52-.82,1-1.23,1.54L16,13.27,14.29,15.4a1.64,1.64,0,0,0,0,2.42l2.32,2.66,1.8,2.06,1.36,1.57.05.06A24.11,24.11,0,0,0,5,36.55a23.68,23.68,0,0,0-.62,19.71A22.79,22.79,0,0,0,18.09,69.38a24.63,24.63,0,0,0,8.42,1.54A24.12,24.12,0,0,0,40,66.57l.25.17a23.28,23.28,0,0,0,11.16,4,24.4,24.4,0,0,0,5.22-.09,23,23,0,0,0,7-2,23.76,23.76,0,0,0,11.38-11.2,22.79,22.79,0,0,0,2.3-8.37l.06-.13,0-.09ZM24.23,15c.22-.77.48-1.53.73-2.27l.12-.35h2.47c.26.74.56,1.64.84,2.62ZM28.3,18.3c-.34,1.19-1.22,3.82-1.7,5H26l-1.71-5Zm5.33,0-3.09,3.54c.4-1.25.92-2.73,1.26-3.54ZM31.83,15,31,12.33h.68L33.82,15Zm-13,0,.59-.72c.44-.53.87-1.06,1.29-1.6a.67.67,0,0,1,.72-.34l.26,0L20.81,15Zm2,3.3c.42,1.13.81,2.29,1.17,3.43L19,18.3ZM36.31,62.82l0,0h0l0,0ZM43,58.94l-.92-1,.69-1.13A19,19,0,0,0,45.26,50,1.64,1.64,0,0,0,44,48.11a1.6,1.6,0,0,0-1.21.24,1.65,1.65,0,0,0-.68,1.08,17.33,17.33,0,0,1-1,3.56A16.45,16.45,0,0,1,40,55.16C37,50.69,37,43.65,40,39a12.8,12.8,0,0,1,.93,1.83,14.62,14.62,0,0,1,1.14,4.27,3,3,0,0,0,.13.6A1.55,1.55,0,0,0,44,46.86a1.48,1.48,0,0,0,1.32-1.63A14.6,14.6,0,0,0,45,42.72a19,19,0,0,0-13.23-14,17.61,17.61,0,0,0-4-.72,19.13,19.13,0,0,0-10,2,18.22,18.22,0,0,0-3.6,2.35,3.4,3.4,0,0,0-.55.53,1.61,1.61,0,0,0,2.09,2.37,3.11,3.11,0,0,0,.43-.32l.1-.08A15.94,15.94,0,0,1,34.25,33.3l-.4.68c-.5.85-1,1.69-1.46,2.56a20.1,20.1,0,0,0-1.57,4.05A19.57,19.57,0,0,0,30,44.88a37.38,37.38,0,0,0,0,4.38,20,20,0,0,0,.79,4.28,25.06,25.06,0,0,0,1.54,4,23,23,0,0,0,1.94,3.27,14,14,0,0,1-2.7,1.25,15.73,15.73,0,0,1-6.86.82,15.48,15.48,0,0,1-8.37-3.44,15.69,15.69,0,0,1-5.61-9.14,15.44,15.44,0,0,1-.26-4.77,15.85,15.85,0,0,1,2.65-7.39,1.68,1.68,0,0,0,.1-2,1.63,1.63,0,0,0-1.32-.7h0a1.62,1.62,0,0,0-1.33.7,17.16,17.16,0,0,0-1.06,1.7,19.19,19.19,0,0,0,2.4,21.82,19.06,19.06,0,0,0,16.31,6.45,18.38,18.38,0,0,0,8.07-2.72h0l.91,1c-6.68,4.63-18.23,4.73-25.8-3.24A20.53,20.53,0,1,1,43,58.94ZM37,35.26l.93,1,0,.07a19,19,0,0,0-3.17,12.88,18.65,18.65,0,0,0,3.54,9.14,19.11,19.11,0,0,0,17.36,7.8,18.42,18.42,0,0,0,9.49-3.65c.61-.46,1.18-1,1.74-1.46L67,60.9a1.56,1.56,0,0,0,.47-1.75,1.65,1.65,0,0,0-1.12-1,1.62,1.62,0,0,0-1.51.38l-.28.24c-.44.38-.88.77-1.35,1.12a15.26,15.26,0,0,1-7.25,3,15.88,15.88,0,0,1-9.47-1.57c-.25-.13-.5-.27-.74-.41a23.87,23.87,0,0,0,0-27.52,15.45,15.45,0,0,1,6.91-2.09,15.62,15.62,0,0,1,13,5.34,15.22,15.22,0,0,1,3.76,7.86,15.78,15.78,0,0,1-1.93,10.65c-.08.14-.16.29-.23.44A1.61,1.61,0,0,0,70,57.09a16.83,16.83,0,0,0,1-1.82A19.11,19.11,0,0,0,72.74,49,19.2,19.2,0,0,0,58.56,28.57,21.94,21.94,0,0,0,55.15,28a18.94,18.94,0,0,0-9.39,1.66c-.58.28-1.15.58-1.69.87l-.34.18-1-.94A20.53,20.53,0,1,1,37,35.26Z" fill="#001040"></path></g></svg>